<?xml version="1.0" encoding="UTF-8"?>
<svg width="1200" height="630" viewBox="0 0 1200 630" xmlns="http://www.w3.org/2000/svg">
  <rect width="1200" height="630" fill="#fdf9f5"/>
  <rect x="40"   y="40" width="80" height="60" rx="6" fill="#7aab8e"/>
  <rect x="130"  y="40" width="80" height="60" rx="6" fill="#f0ebe4"/>
  <rect x="220"  y="40" width="80" height="60" rx="6" fill="#d08058"/>
  <rect x="310"  y="40" width="80" height="60" rx="6" fill="#7aab8e"/>
  <rect x="400"  y="40" width="80" height="60" rx="6" fill="#a8a098"/>
  <rect x="490"  y="40" width="80" height="60" rx="6" fill="#7aab8e"/>
  <rect x="580"  y="40" width="80" height="60" rx="6" fill="#f0ebe4"/>
  <rect x="670"  y="40" width="80" height="60" rx="6" fill="#d08058"/>
  <rect x="760"  y="40" width="80" height="60" rx="6" fill="#7aab8e"/>
  <rect x="850"  y="40" width="80" height="60" rx="6" fill="#a8a098"/>
  <rect x="940"  y="40" width="80" height="60" rx="6" fill="#7aab8e"/>
  <rect x="1030" y="40" width="80" height="60" rx="6" fill="#f0ebe4"/>
  <rect x="40"   y="110" width="80" height="60" rx="6" fill="#f0ebe4"/>
  <rect x="130"  y="110" width="80" height="60" rx="6" fill="#7aab8e"/>
  <rect x="220"  y="110" width="80" height="60" rx="6" fill="#a8a098"/>
  <rect x="310"  y="110" width="80" height="60" rx="6" fill="#7aab8e"/>
  <rect x="400"  y="110" width="80" height="60" rx="6" fill="#7aab8e"/>
  <rect x="490"  y="110" width="80" height="60" rx="6" fill="#d08058"/>
  <rect x="580"  y="110" width="80" height="60" rx="6" fill="#7aab8e"/>
  <rect x="670"  y="110" width="80" height="60" rx="6" fill="#a8a098"/>
  <rect x="760"  y="110" width="80" height="60" rx="6" fill="#7aab8e"/>
  <rect x="850"  y="110" width="80" height="60" rx="6" fill="#f0ebe4"/>
  <rect x="940"  y="110" width="80" height="60" rx="6" fill="#d08058"/>
  <rect x="1030" y="110" width="80" height="60" rx="6" fill="#7aab8e"/>
  <rect x="40"   y="460" width="80" height="60" rx="6" fill="#7aab8e"/>
  <rect x="130"  y="460" width="80" height="60" rx="6" fill="#a8a098"/>
  <rect x="220"  y="460" width="80" height="60" rx="6" fill="#7aab8e"/>
  <rect x="310"  y="460" width="80" height="60" rx="6" fill="#d08058"/>
  <rect x="400"  y="460" width="80" height="60" rx="6" fill="#7aab8e"/>
  <rect x="490"  y="460" width="80" height="60" rx="6" fill="#7aab8e"/>
  <rect x="580"  y="460" width="80" height="60" rx="6" fill="#f0ebe4"/>
  <rect x="670"  y="460" width="80" height="60" rx="6" fill="#7aab8e"/>
  <rect x="760"  y="460" width="80" height="60" rx="6" fill="#a8a098"/>
  <rect x="850"  y="460" width="80" height="60" rx="6" fill="#d08058"/>
  <rect x="940"  y="460" width="80" height="60" rx="6" fill="#7aab8e"/>
  <rect x="1030" y="460" width="80" height="60" rx="6" fill="#f0ebe4"/>
  <rect x="40"   y="530" width="80" height="60" rx="6" fill="#a8a098"/>
  <rect x="130"  y="530" width="80" height="60" rx="6" fill="#7aab8e"/>
  <rect x="220"  y="530" width="80" height="60" rx="6" fill="#d08058"/>
  <rect x="310"  y="530" width="80" height="60" rx="6" fill="#7aab8e"/>
  <rect x="400"  y="530" width="80" height="60" rx="6" fill="#7aab8e"/>
  <rect x="490"  y="530" width="80" height="60" rx="6" fill="#a8a098"/>
  <rect x="580"  y="530" width="80" height="60" rx="6" fill="#7aab8e"/>
  <rect x="670"  y="530" width="80" height="60" rx="6" fill="#f0ebe4"/>
  <rect x="760"  y="530" width="80" height="60" rx="6" fill="#d08058"/>
  <rect x="850"  y="530" width="80" height="60" rx="6" fill="#7aab8e"/>
  <rect x="940"  y="530" width="80" height="60" rx="6" fill="#a8a098"/>
  <rect x="1030" y="530" width="80" height="60" rx="6" fill="#7aab8e"/>
</svg>
